<svg xmlns="http://www.w3.org/2000/svg" width="1024" height="1024" viewBox="0 0 1024 1024">
  <defs>
    <linearGradient id="background" x1="168" y1="80" x2="856" y2="944" gradientUnits="userSpaceOnUse">
      <stop offset="0" stop-color="#152238"/>
      <stop offset="1" stop-color="#05080f"/>
    </linearGradient>
    <linearGradient id="activeScreen" x1="348" y1="256" x2="676" y2="704" gradientUnits="userSpaceOnUse">
      <stop offset="0" stop-color="#7dd3fc"/>
      <stop offset="0.48" stop-color="#38bdf8"/>
      <stop offset="1" stop-color="#0ea5e9"/>
    </linearGradient>
    <linearGradient id="inactiveScreen" x1="0" y1="260" x2="0" y2="704" gradientUnits="userSpaceOnUse">
      <stop offset="0" stop-color="#334155"/>
      <stop offset="1" stop-color="#111827"/>
    </linearGradient>
    <filter id="shadow" x="-20%" y="-20%" width="140%" height="140%">
      <feDropShadow dx="0" dy="22" stdDeviation="28" flood-color="#000000" flood-opacity="0.45"/>
    </filter>
  </defs>

  <rect width="1024" height="1024" rx="220" fill="url(#background)"/>
  <circle cx="512" cy="512" r="392" fill="none" stroke="#22324a" stroke-width="24"/>

  <g filter="url(#shadow)">
    <rect x="112" y="304" width="248" height="296" rx="38" fill="url(#inactiveScreen)" stroke="#475569" stroke-width="18"/>
    <rect x="664" y="304" width="248" height="296" rx="38" fill="url(#inactiveScreen)" stroke="#475569" stroke-width="18"/>
    <rect x="294" y="220" width="436" height="520" rx="54" fill="#07111f" stroke="#bae6fd" stroke-width="22"/>
    <rect x="340" y="270" width="344" height="420" rx="28" fill="url(#activeScreen)"/>
    <path d="M422 776h180l28 82H394l28-82Z" fill="#94a3b8"/>
    <rect x="342" y="846" width="340" height="46" rx="23" fill="#cbd5e1"/>
  </g>

  <path d="M398 342c34-34 79-52 134-52 46 0 86 13 120 39" fill="none" stroke="#e0f2fe" stroke-width="26" stroke-linecap="round" opacity="0.9"/>
  <circle cx="512" cy="478" r="70" fill="#f8fafc"/>
  <circle cx="512" cy="478" r="32" fill="#0284c7"/>
</svg>
